<mxfile host="app.diagrams.net" agent="Mozilla/5.0 (Windows NT 10.0; Win64; x64) AppleWebKit/537.36 (KHTML, like Gecko) Chrome/128.0.0.0 Safari/537.36" version="24.7.13">
  <diagram name="PÃ¡gina-1" id="dD90SmdXsx337cMtAzFO">
    <mxGraphModel dx="1434" dy="772" grid="1" gridSize="10" guides="1" tooltips="1" connect="1" arrows="1" fold="1" page="1" pageScale="1" pageWidth="827" pageHeight="1169" math="0" shadow="0">
      <root>
        <mxCell id="0" />
        <mxCell id="1" parent="0" />
        <mxCell id="j4q45FdJCVuGdoI92-O5-1" value="Usuario Cliente" style="shape=umlActor;verticalLabelPosition=bottom;verticalAlign=top;html=1;outlineConnect=0;" vertex="1" parent="1">
          <mxGeometry x="30" y="120" width="30" height="60" as="geometry" />
        </mxCell>
        <mxCell id="j4q45FdJCVuGdoI92-O5-3" value="" style="shape=cube;whiteSpace=wrap;html=1;boundedLbl=1;backgroundOutline=1;darkOpacity=0.05;darkOpacity2=0.1;size=10;" vertex="1" parent="1">
          <mxGeometry x="140" y="30" width="210" height="430" as="geometry" />
        </mxCell>
        <mxCell id="j4q45FdJCVuGdoI92-O5-4" style="edgeStyle=orthogonalEdgeStyle;rounded=0;orthogonalLoop=1;jettySize=auto;html=1;exitX=0.5;exitY=0.5;exitDx=0;exitDy=0;exitPerimeter=0;entryX=0;entryY=0;entryDx=0;entryDy=35;entryPerimeter=0;" edge="1" parent="1" source="j4q45FdJCVuGdoI92-O5-1" target="j4q45FdJCVuGdoI92-O5-3">
          <mxGeometry relative="1" as="geometry" />
        </mxCell>
        <mxCell id="j4q45FdJCVuGdoI92-O5-5" value="TECLADO" style="edgeLabel;html=1;align=center;verticalAlign=middle;resizable=0;points=[];" vertex="1" connectable="0" parent="j4q45FdJCVuGdoI92-O5-4">
          <mxGeometry x="0.1375" y="-2" relative="1" as="geometry">
            <mxPoint as="offset" />
          </mxGeometry>
        </mxCell>
        <mxCell id="j4q45FdJCVuGdoI92-O5-10" value="" style="rounded=0;whiteSpace=wrap;html=1;" vertex="1" parent="1">
          <mxGeometry x="180" y="70" width="150" height="80" as="geometry" />
        </mxCell>
        <mxCell id="j4q45FdJCVuGdoI92-O5-7" value="" style="shape=module;align=left;spacingLeft=20;align=center;verticalAlign=top;whiteSpace=wrap;html=1;" vertex="1" parent="1">
          <mxGeometry x="240" y="75" width="80" height="50" as="geometry" />
        </mxCell>
        <mxCell id="j4q45FdJCVuGdoI92-O5-11" value="" style="rounded=0;whiteSpace=wrap;html=1;" vertex="1" parent="1">
          <mxGeometry x="180" y="160" width="150" height="80" as="geometry" />
        </mxCell>
        <mxCell id="j4q45FdJCVuGdoI92-O5-12" value="" style="shape=module;align=left;spacingLeft=20;align=center;verticalAlign=top;whiteSpace=wrap;html=1;" vertex="1" parent="1">
          <mxGeometry x="240" y="165" width="80" height="50" as="geometry" />
        </mxCell>
        <mxCell id="j4q45FdJCVuGdoI92-O5-13" value="COMPUTADORA" style="text;html=1;align=center;verticalAlign=middle;whiteSpace=wrap;rounded=0;" vertex="1" parent="1">
          <mxGeometry x="180" y="40" width="60" height="30" as="geometry" />
        </mxCell>
        <mxCell id="j4q45FdJCVuGdoI92-O5-14" value="INTERFAZ" style="text;html=1;align=center;verticalAlign=middle;whiteSpace=wrap;rounded=0;" vertex="1" parent="1">
          <mxGeometry x="220" y="125" width="60" height="30" as="geometry" />
        </mxCell>
        <mxCell id="j4q45FdJCVuGdoI92-O5-15" value="BUSCADOR" style="text;html=1;align=center;verticalAlign=middle;whiteSpace=wrap;rounded=0;" vertex="1" parent="1">
          <mxGeometry x="220" y="215" width="60" height="30" as="geometry" />
        </mxCell>
        <mxCell id="j4q45FdJCVuGdoI92-O5-16" value="" style="shape=cube;whiteSpace=wrap;html=1;boundedLbl=1;backgroundOutline=1;darkOpacity=0.05;darkOpacity2=0.1;size=10;" vertex="1" parent="1">
          <mxGeometry x="420" y="65" width="220" height="195" as="geometry" />
        </mxCell>
        <mxCell id="j4q45FdJCVuGdoI92-O5-21" value="APLICACION" style="text;html=1;align=center;verticalAlign=middle;whiteSpace=wrap;rounded=0;" vertex="1" parent="1">
          <mxGeometry x="439" y="73" width="60" height="30" as="geometry" />
        </mxCell>
        <mxCell id="j4q45FdJCVuGdoI92-O5-26" value="" style="shape=cube;whiteSpace=wrap;html=1;boundedLbl=1;backgroundOutline=1;darkOpacity=0.05;darkOpacity2=0.1;size=10;" vertex="1" parent="1">
          <mxGeometry x="520" y="330" width="210" height="150" as="geometry" />
        </mxCell>
        <mxCell id="j4q45FdJCVuGdoI92-O5-27" value="" style="rounded=0;whiteSpace=wrap;html=1;" vertex="1" parent="1">
          <mxGeometry x="560" y="370" width="150" height="90" as="geometry" />
        </mxCell>
        <mxCell id="j4q45FdJCVuGdoI92-O5-28" value="" style="shape=module;align=left;spacingLeft=20;align=center;verticalAlign=top;whiteSpace=wrap;html=1;" vertex="1" parent="1">
          <mxGeometry x="620" y="380" width="80" height="50" as="geometry" />
        </mxCell>
        <mxCell id="j4q45FdJCVuGdoI92-O5-29" value="BASE DE DATOS" style="text;html=1;align=center;verticalAlign=middle;whiteSpace=wrap;rounded=0;" vertex="1" parent="1">
          <mxGeometry x="560" y="340" width="100" height="30" as="geometry" />
        </mxCell>
        <mxCell id="j4q45FdJCVuGdoI92-O5-30" value="INFORMACION" style="text;html=1;align=center;verticalAlign=middle;whiteSpace=wrap;rounded=0;" vertex="1" parent="1">
          <mxGeometry x="605" y="435" width="60" height="30" as="geometry" />
        </mxCell>
        <mxCell id="j4q45FdJCVuGdoI92-O5-33" style="edgeStyle=orthogonalEdgeStyle;rounded=0;orthogonalLoop=1;jettySize=auto;html=1;entryX=0;entryY=0;entryDx=0;entryDy=70;entryPerimeter=0;" edge="1" parent="1" source="j4q45FdJCVuGdoI92-O5-3" target="j4q45FdJCVuGdoI92-O5-16">
          <mxGeometry relative="1" as="geometry">
            <Array as="points">
              <mxPoint x="370" y="135" />
              <mxPoint x="370" y="135" />
            </Array>
          </mxGeometry>
        </mxCell>
        <mxCell id="j4q45FdJCVuGdoI92-O5-34" style="edgeStyle=orthogonalEdgeStyle;rounded=0;orthogonalLoop=1;jettySize=auto;html=1;entryX=0;entryY=0;entryDx=210;entryDy=80;entryPerimeter=0;" edge="1" parent="1" source="j4q45FdJCVuGdoI92-O5-16" target="j4q45FdJCVuGdoI92-O5-26">
          <mxGeometry relative="1" as="geometry" />
        </mxCell>
        <mxCell id="j4q45FdJCVuGdoI92-O5-35" value="" style="rounded=0;whiteSpace=wrap;html=1;" vertex="1" parent="1">
          <mxGeometry x="180" y="252" width="150" height="188" as="geometry" />
        </mxCell>
        <mxCell id="j4q45FdJCVuGdoI92-O5-37" value="SERVIDOR" style="text;html=1;align=center;verticalAlign=middle;whiteSpace=wrap;rounded=0;" vertex="1" parent="1">
          <mxGeometry x="190" y="252" width="60" height="30" as="geometry" />
        </mxCell>
        <mxCell id="j4q45FdJCVuGdoI92-O5-39" value="" style="rounded=0;whiteSpace=wrap;html=1;" vertex="1" parent="1">
          <mxGeometry x="200" y="280" width="120" height="70" as="geometry" />
        </mxCell>
        <mxCell id="j4q45FdJCVuGdoI92-O5-40" value="" style="shape=module;align=left;spacingLeft=20;align=center;verticalAlign=top;whiteSpace=wrap;html=1;" vertex="1" parent="1">
          <mxGeometry x="255" y="287" width="60" height="45" as="geometry" />
        </mxCell>
        <mxCell id="j4q45FdJCVuGdoI92-O5-41" value="TRANSFERENCIA" style="text;html=1;align=center;verticalAlign=middle;whiteSpace=wrap;rounded=0;" vertex="1" parent="1">
          <mxGeometry x="227" y="327" width="60" height="30" as="geometry" />
        </mxCell>
        <mxCell id="j4q45FdJCVuGdoI92-O5-42" value="" style="rounded=0;whiteSpace=wrap;html=1;" vertex="1" parent="1">
          <mxGeometry x="200" y="358" width="120" height="70" as="geometry" />
        </mxCell>
        <mxCell id="j4q45FdJCVuGdoI92-O5-43" value="" style="shape=module;align=left;spacingLeft=20;align=center;verticalAlign=top;whiteSpace=wrap;html=1;" vertex="1" parent="1">
          <mxGeometry x="255" y="365" width="60" height="45" as="geometry" />
        </mxCell>
        <mxCell id="j4q45FdJCVuGdoI92-O5-44" value="CAPTURA" style="text;html=1;align=center;verticalAlign=middle;whiteSpace=wrap;rounded=0;" vertex="1" parent="1">
          <mxGeometry x="220" y="406" width="60" height="30" as="geometry" />
        </mxCell>
        <mxCell id="j4q45FdJCVuGdoI92-O5-47" value="" style="rounded=0;whiteSpace=wrap;html=1;" vertex="1" parent="1">
          <mxGeometry x="505" y="96" width="120" height="70" as="geometry" />
        </mxCell>
        <mxCell id="j4q45FdJCVuGdoI92-O5-48" value="" style="shape=module;align=left;spacingLeft=20;align=center;verticalAlign=top;whiteSpace=wrap;html=1;" vertex="1" parent="1">
          <mxGeometry x="560" y="103" width="60" height="45" as="geometry" />
        </mxCell>
        <mxCell id="j4q45FdJCVuGdoI92-O5-49" value="CONEXION" style="text;html=1;align=center;verticalAlign=middle;whiteSpace=wrap;rounded=0;" vertex="1" parent="1">
          <mxGeometry x="532" y="143" width="60" height="30" as="geometry" />
        </mxCell>
        <mxCell id="j4q45FdJCVuGdoI92-O5-50" value="" style="rounded=0;whiteSpace=wrap;html=1;" vertex="1" parent="1">
          <mxGeometry x="505" y="175" width="120" height="70" as="geometry" />
        </mxCell>
        <mxCell id="j4q45FdJCVuGdoI92-O5-51" value="" style="shape=module;align=left;spacingLeft=20;align=center;verticalAlign=top;whiteSpace=wrap;html=1;" vertex="1" parent="1">
          <mxGeometry x="560" y="182" width="60" height="45" as="geometry" />
        </mxCell>
        <mxCell id="j4q45FdJCVuGdoI92-O5-52" value="WEB SERVICE" style="text;html=1;align=center;verticalAlign=middle;whiteSpace=wrap;rounded=0;" vertex="1" parent="1">
          <mxGeometry x="519" y="222" width="92" height="30" as="geometry" />
        </mxCell>
        <mxCell id="j4q45FdJCVuGdoI92-O5-60" value="" style="endArrow=none;html=1;rounded=0;exitX=1;exitY=0.5;exitDx=0;exitDy=0;entryX=-0.005;entryY=0.113;entryDx=0;entryDy=0;entryPerimeter=0;" edge="1" parent="1" source="j4q45FdJCVuGdoI92-O5-35" target="j4q45FdJCVuGdoI92-O5-26">
          <mxGeometry width="50" height="50" relative="1" as="geometry">
            <mxPoint x="400" y="420" as="sourcePoint" />
            <mxPoint x="450" y="370" as="targetPoint" />
          </mxGeometry>
        </mxCell>
        <mxCell id="j4q45FdJCVuGdoI92-O5-67" value="" style="shape=cube;whiteSpace=wrap;html=1;boundedLbl=1;backgroundOutline=1;darkOpacity=0.05;darkOpacity2=0.1;size=10;" vertex="1" parent="1">
          <mxGeometry x="140" y="500" width="210" height="330" as="geometry" />
        </mxCell>
        <mxCell id="j4q45FdJCVuGdoI92-O5-68" value="" style="rounded=0;whiteSpace=wrap;html=1;" vertex="1" parent="1">
          <mxGeometry x="180" y="540" width="150" height="80" as="geometry" />
        </mxCell>
        <mxCell id="j4q45FdJCVuGdoI92-O5-69" value="ARDUINO" style="text;html=1;align=center;verticalAlign=middle;whiteSpace=wrap;rounded=0;" vertex="1" parent="1">
          <mxGeometry x="160" y="510" width="60" height="30" as="geometry" />
        </mxCell>
        <mxCell id="j4q45FdJCVuGdoI92-O5-70" value="NIVEL DE AGUA" style="text;html=1;align=center;verticalAlign=middle;whiteSpace=wrap;rounded=0;" vertex="1" parent="1">
          <mxGeometry x="220" y="595" width="100" height="30" as="geometry" />
        </mxCell>
        <mxCell id="j4q45FdJCVuGdoI92-O5-71" value="" style="shape=module;align=left;spacingLeft=20;align=center;verticalAlign=top;whiteSpace=wrap;html=1;" vertex="1" parent="1">
          <mxGeometry x="245" y="545" width="80" height="50" as="geometry" />
        </mxCell>
        <mxCell id="j4q45FdJCVuGdoI92-O5-72" value="" style="endArrow=none;html=1;rounded=0;exitX=0;exitY=1;exitDx=0;exitDy=0;entryX=0.386;entryY=0.002;entryDx=0;entryDy=0;entryPerimeter=0;" edge="1" parent="1" source="j4q45FdJCVuGdoI92-O5-44" target="j4q45FdJCVuGdoI92-O5-67">
          <mxGeometry width="50" height="50" relative="1" as="geometry">
            <mxPoint x="350" y="585" as="sourcePoint" />
            <mxPoint x="539" y="586" as="targetPoint" />
          </mxGeometry>
        </mxCell>
        <mxCell id="j4q45FdJCVuGdoI92-O5-73" value="" style="rounded=0;whiteSpace=wrap;html=1;" vertex="1" parent="1">
          <mxGeometry x="180" y="630" width="150" height="80" as="geometry" />
        </mxCell>
        <mxCell id="j4q45FdJCVuGdoI92-O5-74" value="TEMPERATURA" style="text;html=1;align=center;verticalAlign=middle;whiteSpace=wrap;rounded=0;" vertex="1" parent="1">
          <mxGeometry x="220" y="685" width="60" height="30" as="geometry" />
        </mxCell>
        <mxCell id="j4q45FdJCVuGdoI92-O5-75" value="" style="shape=module;align=left;spacingLeft=20;align=center;verticalAlign=top;whiteSpace=wrap;html=1;" vertex="1" parent="1">
          <mxGeometry x="245" y="635" width="80" height="50" as="geometry" />
        </mxCell>
        <mxCell id="j4q45FdJCVuGdoI92-O5-76" value="" style="rounded=0;whiteSpace=wrap;html=1;" vertex="1" parent="1">
          <mxGeometry x="180" y="730" width="150" height="80" as="geometry" />
        </mxCell>
        <mxCell id="j4q45FdJCVuGdoI92-O5-77" value="HUMEDAD" style="text;html=1;align=center;verticalAlign=middle;whiteSpace=wrap;rounded=0;" vertex="1" parent="1">
          <mxGeometry x="220" y="785" width="60" height="30" as="geometry" />
        </mxCell>
        <mxCell id="j4q45FdJCVuGdoI92-O5-78" value="" style="shape=module;align=left;spacingLeft=20;align=center;verticalAlign=top;whiteSpace=wrap;html=1;" vertex="1" parent="1">
          <mxGeometry x="245" y="735" width="80" height="50" as="geometry" />
        </mxCell>
      </root>
    </mxGraphModel>
  </diagram>
</mxfile>
